<svg height="511pt" viewBox="-69 1 511 511.99896" width="511pt" xmlns="http://www.w3.org/2000/svg"><path d="m350.828125 183.136719h-32.957031v-122.246094h32.957031c12.03125 0 21.789063 9.757813 21.789063 21.789063v78.667968c0 12.035156-9.757813 21.789063-21.789063 21.789063zm0 0" fill="#302e4f"/><path d="m312.359375 0h-275.785156c-19.921875 0-36.074219 16.152344-36.074219 36.074219v439.851562c0 19.921875 16.152344 36.074219 36.074219 36.074219h275.785156c19.921875 0 36.074219-16.152344 36.074219-36.074219v-439.851562c0-19.921875-16.152344-36.074219-36.074219-36.074219zm0 0" fill="#565574"/><path d="m317.871094 109.746094v297.242187c0 14.859375-12.046875 26.90625-26.917969 26.90625h-232.980469c-8.128906 0-15.421875-3.605469-20.34375-9.308593-4.09375-4.714844-6.570312-10.867188-6.570312-17.597657v-297.242187c0-14.867188 12.058594-26.914063 26.914062-26.914063h232.980469c4.640625 0 9 1.167969 12.800781 3.238281 8.414063 4.542969 14.117188 13.4375 14.117188 23.675782zm0 0" fill="#8fd4ef"/><g fill="#302e4f"><path d="m190.136719 474.648438c0 8.65625-7.015625 15.671874-15.671875 15.671874s-15.671875-7.015624-15.671875-15.671874 7.015625-15.671876 15.671875-15.671876 15.671875 7.015626 15.671875 15.671876zm0 0"/><path d="m215.214844 45.21875h-81.5c-4.328125 0-7.835938-3.507812-7.835938-7.835938 0-4.328124 3.507813-7.839843 7.835938-7.839843h81.5c4.328125 0 7.835937 3.511719 7.835937 7.839843 0 4.328126-3.507812 7.835938-7.835937 7.835938zm0 0"/><path d="m103.941406 45.222656c-3.285156 0-6.269531-2.125-7.378906-5.207031-1.152344-3.195313-.027344-6.910156 2.707031-8.929687 5.558594-4.105469 13.609375.824218 12.386719 7.636718-.664062 3.695313-3.9375 6.5-7.714844 6.5zm0 0"/></g><path d="m303.753906 86.070312-272.695312 272.6875v-121.898437l154.027344-154.027344h105.867187c4.640625 0 9 1.167969 12.800781 3.238281zm0 0" fill="#c5f1ff"/><path d="m317.871094 144.34375v75.253906l-214.296875 214.296875h-45.601563c-8.128906 0-15.421875-3.605469-20.34375-9.308593zm0 0" fill="#c5f1ff"/><path d="m290.953125 441.738281h-232.976563c-19.160156 0-34.75-15.589843-34.75-34.753906v-297.238281c0-19.160156 15.589844-34.75 34.75-34.75h232.980469c19.160157 0 34.75 15.589844 34.75 34.75v297.238281c0 19.164063-15.589843 34.753906-34.753906 34.753906zm-232.976563-351.070312c-10.519531 0-19.078124 8.558593-19.078124 19.078125v297.238281c0 10.519531 8.558593 19.078125 19.078124 19.078125h232.980469c10.519531 0 19.078125-8.558594 19.078125-19.078125v-297.238281c0-10.519532-8.558594-19.078125-19.078125-19.078125zm0 0" fill="#302e4f"/><path d="m263.015625 270.660156c0-42.054687-39.648437-21.25-88.550781-21.25-48.90625 0-88.550782-20.804687-88.550782 21.25 0 42.058594 39.644532 76.15625 88.550782 76.15625 48.902344 0 88.550781-34.09375 88.550781-76.15625zm0 0" fill="#302e4f"/><path d="m241.371094 320.546875c-16.238282 16.101563-40.1875 26.269531-66.90625 26.269531s-50.667969-10.175781-66.894532-26.28125c16.238282-16.078125 40.1875-26.257812 66.894532-26.257812 26.71875 0 50.675781 10.179687 66.90625 26.269531zm0 0" fill="#fd7369"/><path d="m72.601562 191.339844c-1.984374 0-3.972656-.75-5.5-2.253906-3.082031-3.035157-3.121093-7.996094-.085937-11.082032 10.320313-10.488281 22.546875-16.03125 35.355469-16.03125 12.804687 0 25.03125 5.542969 35.355468 16.03125 3.035157 3.085938 2.996094 8.046875-.089843 11.082032-3.085938 3.035156-8.046875 2.996093-11.082031-.085938-7.308594-7.429688-15.671876-11.355469-24.183594-11.355469-8.515625 0-16.875 3.925781-24.183594 11.355469-1.535156 1.558594-3.5625 2.339844-5.585938 2.339844zm0 0" fill="#302e4f"/><path d="m216.789062 191.339844c-1.984374 0-3.96875-.75-5.496093-2.253906-3.085938-3.035157-3.125-7.996094-.089844-11.082032 10.324219-10.488281 22.546875-16.03125 35.355469-16.03125s25.03125 5.542969 35.355468 16.03125c3.035157 3.085938 2.996094 8.046875-.089843 11.082032-3.085938 3.035156-8.046875 2.996093-11.082031-.085938-7.308594-7.429688-15.671876-11.355469-24.183594-11.355469-8.511719 0-16.875 3.925781-24.183594 11.355469-1.535156 1.558594-3.558594 2.339844-5.585938 2.339844zm0 0" fill="#302e4f"/></svg>