<svg id="icons" enable-background="new 0 0 64 64" height="512" viewBox="0 0 64 64" width="512" xmlns="http://www.w3.org/2000/svg"><path d="m50 58.004c0 3.3-2.7 6-6 6h-24c-3.3 0-6-2.7-6-6v-48.005c0-3.3 2.7-6 6-6h24c3.3 0 6 2.7 6 6z" fill="#545c66"/><path d="m50 54.001c0 3.3-2.7 6-6 6h-24c-3.3 0-6-2.7-6-6v-48.005c0-3.3 2.7-6 6-6h24c3.3 0 6 2.7 6 6z" fill="#656d78"/><path d="m32 53.496c1.1 0 2 .9 2 2 0 1.11-.9 2-2 2s-2-.89-2-2c0-1.1.9-2 2-2z" fill="#aab2bd"/><path d="m29.03 4.498c-.553 0-1.005-.447-1.005-1s.442-1 .994-1h.011c.552 0 1 .447 1 1s-.448 1-1 1z" fill="#5d9cec"/><path d="m35 4.498h-3c-.553 0-1-.447-1-1s.447-1 1-1h3c.553 0 1 .447 1 1s-.447 1-1 1z" fill="#545c66"/><path d="m16 6.998h32v44h-32z" fill="#f5f7fa"/><circle cx="32" cy="24.002" fill="#5d9cec" r="13"/><path d="m38 40.002c1.65 0 3 1.35 3 3 0 1.66-1.35 3-3 3-1.66 0-3-1.34-3-3 0-1.65 1.34-3 3-3z" fill="#a0d468"/><path d="m26 40.002c1.65 0 3 1.35 3 3 0 1.66-1.35 3-3 3-1.66 0-3-1.34-3-3 0-1.65 1.34-3 3-3z" fill="#ed5565"/><path d="m37 25.003c0 2.05-1.24 3.81-3 4.58v.01c-.61.26-1.29.41-2 .41s-1.38-.15-1.99-.41c-1.77-.77-3.01-2.54-3.01-4.59v-2l2-1s1 1 3 1 3-1 3-1l2 1z" fill="#eac6bb"/><path d="m35 22.003-.002.002v2.998c0 2.05-1.24 3.81-3 4.58v.01c-.315.134-.649.236-.997.306.323.066.655.104.999.104.71 0 1.39-.15 2-.41v-.01c1.76-.771 3-2.53 3-4.58v-2z" fill="#d3b1a9"/><path d="m34 32.002v-1h2c1.66 0 3 1.35 3 3v.95c-2.02 1.3-4.42 2.05-7 2.05s-4.979-.75-7-2.04v-.01-.95c0-1.65 1.34-3 3-3h2v1l2-1z" fill="#e6e9ed"/><path d="m36 31.002h-2c1.659.001 2.998 1.351 2.998 3v1.994c.699-.293 1.371-.638 2.002-1.044v-.95c0-1.65-1.34-3-3-3z" fill="#ccd1d9"/><path d="m32 30.003c.71 0 1.39-.15 2-.41v1.409 1l-2-1-2 1v-1-1.389l.01-.021c.61.261 1.28.411 1.99.411z" fill="#fff"/><path d="m35 22.003s-1 1-3 1-3-1-3-1l-2 1v-2c0-2.21 1.79-4 4-4h4v2c1.1 0 2 .89 2 2v2z" fill="#844747"/><path d="m37 23.003v-2c0-1.11-.9-2-2-2v-2h-2v2c0 1.104.896 2 2 2v1z" fill="#773e3e"/></svg>